<mxfile host="app.diagrams.net" agent="Mozilla/5.0 (Windows NT 10.0; Win64; x64) AppleWebKit/537.36 (KHTML, like Gecko) Chrome/127.0.0.0 Safari/537.36" version="24.7.7">
  <diagram name="Page-1" id="sWsSt6fhy5hYTX4KMSzh">
    <mxGraphModel dx="1313" dy="663" grid="1" gridSize="10" guides="1" tooltips="1" connect="1" arrows="1" fold="1" page="1" pageScale="1" pageWidth="850" pageHeight="1100" math="0" shadow="0">
      <root>
        <mxCell id="0" />
        <mxCell id="1" parent="0" />
        <mxCell id="-pe7G0BuLPt8q8O9xn91-41" value="" style="rounded=0;whiteSpace=wrap;html=1;fillColor=none;" vertex="1" parent="1">
          <mxGeometry x="30" y="70" width="440" height="370" as="geometry" />
        </mxCell>
        <mxCell id="-pe7G0BuLPt8q8O9xn91-10" style="edgeStyle=orthogonalEdgeStyle;rounded=0;orthogonalLoop=1;jettySize=auto;html=1;" edge="1" parent="1" source="-pe7G0BuLPt8q8O9xn91-1">
          <mxGeometry relative="1" as="geometry">
            <mxPoint x="400" y="180" as="targetPoint" />
          </mxGeometry>
        </mxCell>
        <mxCell id="-pe7G0BuLPt8q8O9xn91-1" value="Repo/Dev" style="rounded=0;whiteSpace=wrap;html=1;" vertex="1" parent="1">
          <mxGeometry x="340" y="80" width="120" height="60" as="geometry" />
        </mxCell>
        <mxCell id="-pe7G0BuLPt8q8O9xn91-12" style="edgeStyle=orthogonalEdgeStyle;rounded=0;orthogonalLoop=1;jettySize=auto;html=1;entryX=0.5;entryY=0;entryDx=0;entryDy=0;" edge="1" parent="1" source="-pe7G0BuLPt8q8O9xn91-11" target="-pe7G0BuLPt8q8O9xn91-13">
          <mxGeometry relative="1" as="geometry">
            <mxPoint x="400" y="270" as="targetPoint" />
          </mxGeometry>
        </mxCell>
        <mxCell id="-pe7G0BuLPt8q8O9xn91-19" style="edgeStyle=orthogonalEdgeStyle;rounded=0;orthogonalLoop=1;jettySize=auto;html=1;entryX=1;entryY=0.5;entryDx=0;entryDy=0;dashed=1;" edge="1" parent="1" source="-pe7G0BuLPt8q8O9xn91-11" target="-pe7G0BuLPt8q8O9xn91-15">
          <mxGeometry relative="1" as="geometry" />
        </mxCell>
        <mxCell id="-pe7G0BuLPt8q8O9xn91-11" value="CI/CD&lt;br&gt;Github Action" style="rounded=0;whiteSpace=wrap;html=1;" vertex="1" parent="1">
          <mxGeometry x="340" y="180" width="120" height="60" as="geometry" />
        </mxCell>
        <mxCell id="-pe7G0BuLPt8q8O9xn91-22" style="edgeStyle=orthogonalEdgeStyle;rounded=0;orthogonalLoop=1;jettySize=auto;html=1;entryX=0.5;entryY=0;entryDx=0;entryDy=0;" edge="1" parent="1" source="-pe7G0BuLPt8q8O9xn91-13" target="-pe7G0BuLPt8q8O9xn91-21">
          <mxGeometry relative="1" as="geometry" />
        </mxCell>
        <mxCell id="-pe7G0BuLPt8q8O9xn91-30" style="edgeStyle=orthogonalEdgeStyle;rounded=0;orthogonalLoop=1;jettySize=auto;html=1;entryX=0.5;entryY=0;entryDx=0;entryDy=0;" edge="1" parent="1" source="-pe7G0BuLPt8q8O9xn91-13" target="-pe7G0BuLPt8q8O9xn91-23">
          <mxGeometry relative="1" as="geometry" />
        </mxCell>
        <mxCell id="-pe7G0BuLPt8q8O9xn91-13" value="Auto Deployer" style="rounded=0;whiteSpace=wrap;html=1;" vertex="1" parent="1">
          <mxGeometry x="340" y="270" width="120" height="60" as="geometry" />
        </mxCell>
        <mxCell id="-pe7G0BuLPt8q8O9xn91-33" style="edgeStyle=orthogonalEdgeStyle;rounded=0;orthogonalLoop=1;jettySize=auto;html=1;dashed=1;" edge="1" parent="1" source="-pe7G0BuLPt8q8O9xn91-15">
          <mxGeometry relative="1" as="geometry">
            <mxPoint x="230" y="370" as="targetPoint" />
          </mxGeometry>
        </mxCell>
        <mxCell id="-pe7G0BuLPt8q8O9xn91-15" value="SRE" style="rounded=0;whiteSpace=wrap;html=1;" vertex="1" parent="1">
          <mxGeometry x="170" y="180" width="120" height="60" as="geometry" />
        </mxCell>
        <mxCell id="-pe7G0BuLPt8q8O9xn91-44" style="edgeStyle=orthogonalEdgeStyle;rounded=0;orthogonalLoop=1;jettySize=auto;html=1;entryX=0.5;entryY=0;entryDx=0;entryDy=0;" edge="1" parent="1" source="-pe7G0BuLPt8q8O9xn91-21" target="-pe7G0BuLPt8q8O9xn91-43">
          <mxGeometry relative="1" as="geometry" />
        </mxCell>
        <mxCell id="-pe7G0BuLPt8q8O9xn91-21" value="Deploy(Build)" style="rounded=0;whiteSpace=wrap;html=1;" vertex="1" parent="1">
          <mxGeometry x="340" y="370" width="120" height="60" as="geometry" />
        </mxCell>
        <mxCell id="-pe7G0BuLPt8q8O9xn91-24" style="edgeStyle=orthogonalEdgeStyle;rounded=0;orthogonalLoop=1;jettySize=auto;html=1;entryX=0;entryY=0.5;entryDx=0;entryDy=0;" edge="1" parent="1" source="-pe7G0BuLPt8q8O9xn91-23" target="-pe7G0BuLPt8q8O9xn91-21">
          <mxGeometry relative="1" as="geometry" />
        </mxCell>
        <mxCell id="-pe7G0BuLPt8q8O9xn91-23" value="Deploy(Test)" style="rounded=0;whiteSpace=wrap;html=1;" vertex="1" parent="1">
          <mxGeometry x="170" y="370" width="120" height="60" as="geometry" />
        </mxCell>
        <mxCell id="-pe7G0BuLPt8q8O9xn91-37" style="edgeStyle=orthogonalEdgeStyle;rounded=0;orthogonalLoop=1;jettySize=auto;html=1;entryX=0;entryY=0.5;entryDx=0;entryDy=0;" edge="1" parent="1" source="-pe7G0BuLPt8q8O9xn91-36" target="-pe7G0BuLPt8q8O9xn91-1">
          <mxGeometry relative="1" as="geometry" />
        </mxCell>
        <mxCell id="-pe7G0BuLPt8q8O9xn91-39" style="edgeStyle=orthogonalEdgeStyle;rounded=0;orthogonalLoop=1;jettySize=auto;html=1;entryX=0;entryY=0.5;entryDx=0;entryDy=0;dashed=1;" edge="1" parent="1" source="-pe7G0BuLPt8q8O9xn91-36" target="-pe7G0BuLPt8q8O9xn91-23">
          <mxGeometry relative="1" as="geometry">
            <mxPoint x="100.00000000000011" y="400.0000000000001" as="targetPoint" />
            <Array as="points">
              <mxPoint x="100" y="400" />
            </Array>
          </mxGeometry>
        </mxCell>
        <mxCell id="-pe7G0BuLPt8q8O9xn91-36" value="Dev" style="rounded=0;whiteSpace=wrap;html=1;" vertex="1" parent="1">
          <mxGeometry x="40" y="80" width="120" height="60" as="geometry" />
        </mxCell>
        <mxCell id="-pe7G0BuLPt8q8O9xn91-40" value="Logging" style="rounded=0;whiteSpace=wrap;html=1;" vertex="1" parent="1">
          <mxGeometry x="570" y="225" width="120" height="60" as="geometry" />
        </mxCell>
        <mxCell id="-pe7G0BuLPt8q8O9xn91-42" style="edgeStyle=orthogonalEdgeStyle;rounded=0;orthogonalLoop=1;jettySize=auto;html=1;entryX=0;entryY=0.5;entryDx=0;entryDy=0;" edge="1" parent="1" source="-pe7G0BuLPt8q8O9xn91-41" target="-pe7G0BuLPt8q8O9xn91-40">
          <mxGeometry relative="1" as="geometry" />
        </mxCell>
        <mxCell id="-pe7G0BuLPt8q8O9xn91-43" value="Main" style="rounded=0;whiteSpace=wrap;html=1;" vertex="1" parent="1">
          <mxGeometry x="340" y="490" width="120" height="60" as="geometry" />
        </mxCell>
      </root>
    </mxGraphModel>
  </diagram>
</mxfile>
